<svg width="48" height="40" viewBox="0 0 48 40" fill="none" xmlns="http://www.w3.org/2000/svg">
<path d="M9.66281 39.6C6.94281 39.6 4.66281 38.48 2.82281 36.24C1.06281 34 0.182813 31.52 0.182813 28.8C0.182813 25.68 0.782813 22.24 1.98281 18.48C3.26281 14.64 4.82281 11.12 6.66281 7.92C8.58281 4.63999 10.4228 2.23999 12.1828 0.719995H19.7428C18.2228 3.52 16.9428 6.84 15.9028 10.68C14.9428 14.44 14.3828 18.16 14.2228 21.84C15.5028 22.56 16.6228 23.72 17.5828 25.32C18.6228 26.92 19.1428 28.48 19.1428 30C19.1428 32.56 18.2228 34.8 16.3828 36.72C14.6228 38.64 12.3828 39.6 9.66281 39.6ZM37.1428 39.6C34.4228 39.6 32.1428 38.48 30.3028 36.24C28.5428 34 27.6628 31.52 27.6628 28.8C27.6628 25.68 28.2628 22.24 29.4628 18.48C30.7428 14.64 32.3028 11.12 34.1428 7.92C36.0628 4.63999 37.9028 2.23999 39.6628 0.719995H47.2228C45.7028 3.52 44.4228 6.84 43.3828 10.68C42.4228 14.44 41.8628 18.16 41.7028 21.84C42.9828 22.56 44.1028 23.72 45.0628 25.32C46.1028 26.92 46.6228 28.48 46.6228 30C46.6228 32.56 45.7028 34.8 43.8628 36.72C42.1028 38.64 39.8628 39.6 37.1428 39.6Z" fill="#FDD42A"/>
</svg>
