<svg width="48" height="40" viewBox="0 0 48 40" fill="none" xmlns="http://www.w3.org/2000/svg">
<path d="M10.8628 0.719995C13.5828 0.719995 15.8228 1.83999 17.5828 4.07999C19.4228 6.31999 20.3428 8.8 20.3428 11.52C20.3428 14.64 19.7028 18.12 18.4228 21.96C17.2228 25.72 15.6628 29.24 13.7428 32.52C11.9028 35.72 10.1028 38.08 8.34281 39.6H0.782813C2.30281 36.8 3.54281 33.52 4.50281 29.76C5.54281 25.92 6.14281 22.16 6.30281 18.48C5.02281 17.76 3.86281 16.6 2.82281 15C1.86281 13.4 1.38281 11.84 1.38281 10.32C1.38281 7.75999 2.26281 5.51999 4.02281 3.59999C5.86281 1.67999 8.14281 0.719995 10.8628 0.719995ZM38.3428 0.719995C41.0628 0.719995 43.3028 1.83999 45.0628 4.07999C46.9028 6.31999 47.8228 8.8 47.8228 11.52C47.8228 14.64 47.1828 18.12 45.9028 21.96C44.7028 25.72 43.1428 29.24 41.2228 32.52C39.3828 35.72 37.5828 38.08 35.8228 39.6H28.2628C29.7828 36.8 31.0228 33.52 31.9828 29.76C33.0228 25.92 33.6228 22.16 33.7828 18.48C32.5028 17.76 31.3428 16.6 30.3028 15C29.3428 13.4 28.8628 11.84 28.8628 10.32C28.8628 7.75999 29.7428 5.51999 31.5028 3.59999C33.3428 1.67999 35.6228 0.719995 38.3428 0.719995Z" fill="#FDD42A"/>
</svg>
